<svg id="visual" viewBox="0 0 1440 900" width="1440" height="900" xmlns="http://www.w3.org/2000/svg" xmlns:xlink="http://www.w3.org/1999/xlink" version="1.1"><g stroke-width="2" stroke-linejoin="bevel"><path d="M755 408L623 363L637 531Z" fill="#4a53c1" stroke="#6e1eeb"></path><path d="M434 364L562 589L637 531Z" fill="#00284b" stroke="#6e1eeb"></path><path d="M679 118L542 261L623 363Z" fill="#6357d3" stroke="#6e1eeb"></path><path d="M623 363L434 364L637 531Z" fill="#1b479b" stroke="#6e1eeb"></path><path d="M542 261L434 364L623 363Z" fill="#00315f" stroke="#6e1eeb"></path><path d="M915 529L881 303L755 408Z" fill="#985cf3" stroke="#6e1eeb"></path><path d="M755 408L816 177L623 363Z" fill="#00315f" stroke="#6e1eeb"></path><path d="M761 693L915 529L637 531Z" fill="#7d5ae4" stroke="#6e1eeb"></path><path d="M637 531L915 529L755 408Z" fill="#004087" stroke="#6e1eeb"></path><path d="M562 589L761 693L637 531Z" fill="#00315f" stroke="#6e1eeb"></path><path d="M434 364L389 551L562 589Z" fill="#004087" stroke="#6e1eeb"></path><path d="M562 589L458 784L761 693Z" fill="#324dae" stroke="#6e1eeb"></path><path d="M881 303L816 177L755 408Z" fill="#1b479b" stroke="#6e1eeb"></path><path d="M816 177L679 118L623 363Z" fill="#985cf3" stroke="#6e1eeb"></path><path d="M542 261L322 103L434 364Z" fill="#003973" stroke="#6e1eeb"></path><path d="M955 698L1012 535L915 529Z" fill="#324dae" stroke="#6e1eeb"></path><path d="M915 529L1052 369L881 303Z" fill="#6357d3" stroke="#6e1eeb"></path><path d="M1110 153L870 0L816 177Z" fill="#1b479b" stroke="#6e1eeb"></path><path d="M761 693L955 698L915 529Z" fill="#324dae" stroke="#6e1eeb"></path><path d="M1012 535L1052 369L915 529Z" fill="#985cf3" stroke="#6e1eeb"></path><path d="M389 551L411 740L562 589Z" fill="#003973" stroke="#6e1eeb"></path><path d="M817 900L995 768L955 698Z" fill="#324dae" stroke="#6e1eeb"></path><path d="M411 740L458 784L562 589Z" fill="#6357d3" stroke="#6e1eeb"></path><path d="M870 0L679 118L816 177Z" fill="#324dae" stroke="#6e1eeb"></path><path d="M870 0L668 0L679 118Z" fill="#004087" stroke="#6e1eeb"></path><path d="M679 118L523 0L542 261Z" fill="#00284b" stroke="#6e1eeb"></path><path d="M586 900L695 900L761 693Z" fill="#324dae" stroke="#6e1eeb"></path><path d="M1218 680L1240 607L1012 535Z" fill="#324dae" stroke="#6e1eeb"></path><path d="M1240 607L1190 281L1052 369Z" fill="#00315f" stroke="#6e1eeb"></path><path d="M817 900L955 698L761 693Z" fill="#00284b" stroke="#6e1eeb"></path><path d="M458 784L586 900L761 693Z" fill="#00284b" stroke="#6e1eeb"></path><path d="M668 0L523 0L679 118Z" fill="#985cf3" stroke="#6e1eeb"></path><path d="M434 364L206 514L389 551Z" fill="#004087" stroke="#6e1eeb"></path><path d="M389 551L206 514L411 740Z" fill="#7d5ae4" stroke="#6e1eeb"></path><path d="M128 329L206 514L434 364Z" fill="#985cf3" stroke="#6e1eeb"></path><path d="M695 900L817 900L761 693Z" fill="#004087" stroke="#6e1eeb"></path><path d="M523 0L322 103L542 261Z" fill="#985cf3" stroke="#6e1eeb"></path><path d="M1110 153L816 177L881 303Z" fill="#7d5ae4" stroke="#6e1eeb"></path><path d="M1190 281L1110 153L1052 369Z" fill="#00315f" stroke="#6e1eeb"></path><path d="M1052 369L1110 153L881 303Z" fill="#022038" stroke="#6e1eeb"></path><path d="M322 103L192 215L434 364Z" fill="#022038" stroke="#6e1eeb"></path><path d="M523 0L355 0L322 103Z" fill="#004087" stroke="#6e1eeb"></path><path d="M322 103L198 0L192 215Z" fill="#7d5ae4" stroke="#6e1eeb"></path><path d="M1240 607L1052 369L1012 535Z" fill="#985cf3" stroke="#6e1eeb"></path><path d="M192 215L128 329L434 364Z" fill="#003973" stroke="#6e1eeb"></path><path d="M411 740L348 900L458 784Z" fill="#004087" stroke="#6e1eeb"></path><path d="M458 784L348 900L586 900Z" fill="#1b479b" stroke="#6e1eeb"></path><path d="M103 758L348 900L411 740Z" fill="#324dae" stroke="#6e1eeb"></path><path d="M103 758L411 740L206 514Z" fill="#004087" stroke="#6e1eeb"></path><path d="M1218 680L955 698L995 768Z" fill="#003973" stroke="#6e1eeb"></path><path d="M1218 680L1012 535L955 698Z" fill="#00284b" stroke="#6e1eeb"></path><path d="M1118 900L1218 680L995 768Z" fill="#6357d3" stroke="#6e1eeb"></path><path d="M817 900L1118 900L995 768Z" fill="#00284b" stroke="#6e1eeb"></path><path d="M0 261L0 334L128 329Z" fill="#6357d3" stroke="#6e1eeb"></path><path d="M355 0L198 0L322 103Z" fill="#00315f" stroke="#6e1eeb"></path><path d="M0 484L103 758L206 514Z" fill="#324dae" stroke="#6e1eeb"></path><path d="M1317 247L1110 153L1190 281Z" fill="#985cf3" stroke="#6e1eeb"></path><path d="M1304 0L1152 0L1110 153Z" fill="#00284b" stroke="#6e1eeb"></path><path d="M1110 153L1152 0L870 0Z" fill="#6357d3" stroke="#6e1eeb"></path><path d="M128 329L0 484L206 514Z" fill="#1b479b" stroke="#6e1eeb"></path><path d="M0 334L0 484L128 329Z" fill="#7d5ae4" stroke="#6e1eeb"></path><path d="M1440 353L1317 247L1190 281Z" fill="#324dae" stroke="#6e1eeb"></path><path d="M0 261L128 329L192 215Z" fill="#004087" stroke="#6e1eeb"></path><path d="M103 758L157 900L348 900Z" fill="#324dae" stroke="#6e1eeb"></path><path d="M0 0L0 261L192 215Z" fill="#00315f" stroke="#6e1eeb"></path><path d="M0 484L0 761L103 758Z" fill="#985cf3" stroke="#6e1eeb"></path><path d="M103 758L0 900L157 900Z" fill="#1b479b" stroke="#6e1eeb"></path><path d="M1440 804L1440 482L1240 607Z" fill="#985cf3" stroke="#6e1eeb"></path><path d="M1240 607L1440 482L1190 281Z" fill="#022038" stroke="#6e1eeb"></path><path d="M1118 900L1263 900L1218 680Z" fill="#7d5ae4" stroke="#6e1eeb"></path><path d="M1440 804L1240 607L1218 680Z" fill="#022038" stroke="#6e1eeb"></path><path d="M1440 167L1304 0L1317 247Z" fill="#00284b" stroke="#6e1eeb"></path><path d="M1317 247L1304 0L1110 153Z" fill="#003973" stroke="#6e1eeb"></path><path d="M1440 482L1440 353L1190 281Z" fill="#6357d3" stroke="#6e1eeb"></path><path d="M198 0L0 0L192 215Z" fill="#022038" stroke="#6e1eeb"></path><path d="M0 761L0 900L103 758Z" fill="#985cf3" stroke="#6e1eeb"></path><path d="M1440 353L1440 167L1317 247Z" fill="#7d5ae4" stroke="#6e1eeb"></path><path d="M1263 900L1440 804L1218 680Z" fill="#00315f" stroke="#6e1eeb"></path><path d="M1440 167L1440 0L1304 0Z" fill="#324dae" stroke="#6e1eeb"></path><path d="M1263 900L1440 900L1440 804Z" fill="#985cf3" stroke="#6e1eeb"></path></g></svg>