<svg id="visual" viewBox="0 0 1440 900" width="1440" height="900" xmlns="http://www.w3.org/2000/svg" xmlns:xlink="http://www.w3.org/1999/xlink" version="1.1"><rect x="0" y="0" width="1440" height="900" fill="#C62368"></rect><path d="M0 529L13.3 506.7C26.7 484.3 53.3 439.7 80 409.2C106.7 378.7 133.3 362.3 160 389.3C186.7 416.3 213.3 486.7 240 541.7C266.7 596.7 293.3 636.3 320 612C346.7 587.7 373.3 499.3 400 456.7C426.7 414 453.3 417 480 405.3C506.7 393.7 533.3 367.3 560 412.7C586.7 458 613.3 575 640 592C666.7 609 693.3 526 720 516.8C746.7 507.7 773.3 572.3 800 578.8C826.7 585.3 853.3 533.7 880 484.5C906.7 435.3 933.3 388.7 960 372.3C986.7 356 1013.3 370 1040 386C1066.7 402 1093.3 420 1120 443.3C1146.7 466.7 1173.3 495.3 1200 512.8C1226.7 530.3 1253.3 536.7 1280 534C1306.7 531.3 1333.3 519.7 1360 548.5C1386.7 577.3 1413.3 646.7 1426.7 681.3L1440 716L1440 901L1426.7 901C1413.3 901 1386.7 901 1360 901C1333.3 901 1306.7 901 1280 901C1253.3 901 1226.7 901 1200 901C1173.3 901 1146.7 901 1120 901C1093.3 901 1066.7 901 1040 901C1013.3 901 986.7 901 960 901C933.3 901 906.7 901 880 901C853.3 901 826.7 901 800 901C773.3 901 746.7 901 720 901C693.3 901 666.7 901 640 901C613.3 901 586.7 901 560 901C533.3 901 506.7 901 480 901C453.3 901 426.7 901 400 901C373.3 901 346.7 901 320 901C293.3 901 266.7 901 240 901C213.3 901 186.7 901 160 901C133.3 901 106.7 901 80 901C53.3 901 26.7 901 13.3 901L0 901Z" fill="#6600ff"></path><path d="M0 471L13.3 521.2C26.7 571.3 53.3 671.7 80 720.8C106.7 770 133.3 768 160 734.5C186.7 701 213.3 636 240 624.2C266.7 612.3 293.3 653.7 320 672.8C346.7 692 373.3 689 400 660.8C426.7 632.7 453.3 579.3 480 564.5C506.7 549.7 533.3 573.3 560 575.8C586.7 578.3 613.3 559.7 640 565.7C666.7 571.7 693.3 602.3 720 617C746.7 631.7 773.3 630.3 800 623.5C826.7 616.7 853.3 604.3 880 603C906.7 601.7 933.3 611.3 960 597.2C986.7 583 1013.3 545 1040 542.5C1066.7 540 1093.3 573 1120 614.7C1146.7 656.3 1173.3 706.7 1200 736.3C1226.7 766 1253.3 775 1280 762C1306.7 749 1333.3 714 1360 674.7C1386.7 635.3 1413.3 591.7 1426.7 569.8L1440 548L1440 901L1426.7 901C1413.3 901 1386.7 901 1360 901C1333.3 901 1306.7 901 1280 901C1253.3 901 1226.7 901 1200 901C1173.3 901 1146.7 901 1120 901C1093.3 901 1066.7 901 1040 901C1013.3 901 986.7 901 960 901C933.3 901 906.7 901 880 901C853.3 901 826.7 901 800 901C773.3 901 746.7 901 720 901C693.3 901 666.7 901 640 901C613.3 901 586.7 901 560 901C533.3 901 506.7 901 480 901C453.3 901 426.7 901 400 901C373.3 901 346.7 901 320 901C293.3 901 266.7 901 240 901C213.3 901 186.7 901 160 901C133.3 901 106.7 901 80 901C53.3 901 26.7 901 13.3 901L0 901Z" fill="#fa0095"></path><path d="M0 746L13.3 733.7C26.7 721.3 53.3 696.7 80 713.2C106.7 729.7 133.3 787.3 160 803.8C186.7 820.3 213.3 795.7 240 792.8C266.7 790 293.3 809 320 806.3C346.7 803.7 373.3 779.3 400 757C426.7 734.7 453.3 714.3 480 720.2C506.7 726 533.3 758 560 752.2C586.7 746.3 613.3 702.7 640 695.3C666.7 688 693.3 717 720 718.3C746.7 719.7 773.3 693.3 800 676C826.7 658.7 853.3 650.3 880 647.8C906.7 645.3 933.3 648.7 960 678.2C986.7 707.7 1013.3 763.3 1040 798.7C1066.7 834 1093.3 849 1120 839.5C1146.7 830 1173.3 796 1200 755.3C1226.7 714.7 1253.3 667.3 1280 667C1306.7 666.7 1333.3 713.3 1360 736.5C1386.7 759.7 1413.3 759.3 1426.7 759.2L1440 759L1440 901L1426.7 901C1413.3 901 1386.7 901 1360 901C1333.3 901 1306.7 901 1280 901C1253.3 901 1226.7 901 1200 901C1173.3 901 1146.7 901 1120 901C1093.3 901 1066.7 901 1040 901C1013.3 901 986.7 901 960 901C933.3 901 906.7 901 880 901C853.3 901 826.7 901 800 901C773.3 901 746.7 901 720 901C693.3 901 666.7 901 640 901C613.3 901 586.7 901 560 901C533.3 901 506.7 901 480 901C453.3 901 426.7 901 400 901C373.3 901 346.7 901 320 901C293.3 901 266.7 901 240 901C213.3 901 186.7 901 160 901C133.3 901 106.7 901 80 901C53.3 901 26.7 901 13.3 901L0 901Z" fill="#ff6f61"></path></svg>